# xmcd
#
# Track frame offsets:
#	150
#	14399
#	29708
#	46039
#	62465
#	80750
#	96173
#	116813
#	133456
#	148748
#	166808
#	179904
#
# Disc length: 2651 seconds
#
# Revision: 1
# Processed by: cddbd v1.5.1PL2 Copyright (c) Steve Scherf et al.
# Submitted via: audiograbber 1.81.02
#
DISCID=b00a590c
DTITLE=Swiss kids - Mir singe für üse Gott - Dialäkt - Hits
DYEAR=2005
DGENRE=Gospel
TTITLE0=Jede Schritt
TTITLE1=Du bisch Gott
TTITLE2=Du bisch der Held
TTITLE3=Mir gloube an Gott
TTITLE4=Tue, was noch kenä het ta
TTITLE5=Du bisch der Schöpfer
TTITLE6=Es geit um Jesus
TTITLE7=Dini Liebi
TTITLE8=Alles
TTITLE9=Mir singe für üse Gott
TTITLE10=Jesus hie bi üs
TTITLE11=Mir vertroue dir Herr Jesus
EXTD=
EXTT0=
EXTT1=
EXTT2=
EXTT3=
EXTT4=
EXTT5=
EXTT6=
EXTT7=
EXTT8=
EXTT9=
EXTT10=
EXTT11=
PLAYORDER=
